<svg height="464pt" viewBox="-40 0 464 464" width="464pt" xmlns="http://www.w3.org/2000/svg">
  <path d="m336 312h16c17.671875 0 32-17.910156 32-40s-14.328125-40-32-40h-16zm0 0" fill="#ccac9b"/>
  <path d="m48 312h-16c-17.671875 0-32-17.910156-32-40s14.328125-40 32-40h16zm0 0" fill="#ccac9b"/>
  <path d="m32 176h320v128c0 88.367188-71.632812 160-160 160s-160-71.632812-160-160zm0 0" fill="#f5d7ca"/>
  <path d="m352 176c0-17.671875-71.632812-32-160-32s-160 14.328125-160 32 71.632812 32 160 32 160-14.328125 160-32zm0 0" fill="#b9a095"/>
  <g fill="#a8887a">
    <path d="m176 360c-2.460938 0-4.789062-1.136719-6.304688-3.074219-1.515624-1.941406-2.050781-4.472656-1.457031-6.863281l16-64c.640625-2.828125 2.757813-5.09375 5.542969-5.914062 2.785156-.824219 5.792969-.070313 7.867188 1.960937 2.070312 2.03125 2.878906 5.027344 2.113281 7.828125l-12.761719 51.070312 19.054688-4.800781c4.273437-1.035156 8.582031 1.566407 9.648437 5.832031 1.070313 4.261719-1.503906 8.589844-5.757813 9.6875l-32 8c-.636718.171876-1.289062.261719-1.945312.273438zm0 0"/>
    <path d="m120 312c-29.902344 0-39.367188-36.503906-39.761719-38.0625-1.074219-4.289062 1.527344-8.632812 5.8125-9.710938 4.285157-1.074218 8.632813 1.527344 9.710938 5.8125.0625.257813 6.832031 25.960938 24.238281 25.960938s24.175781-25.703125 24.238281-25.960938c1.078125-4.285156 5.425781-6.886718 9.710938-5.8125 4.285156 1.078126 6.886719 5.421876 5.8125 9.710938-.394531 1.558594-9.859375 38.0625-39.761719 38.0625zm0 0"/>
    <path d="m264 312c-29.902344 0-39.367188-36.503906-39.761719-38.0625-1.074219-4.289062 1.527344-8.632812 5.8125-9.710938 4.285157-1.074218 8.632813 1.527344 9.710938 5.8125.0625.257813 6.832031 25.960938 24.238281 25.960938s24.175781-25.703125 24.238281-25.960938c1.078125-4.285156 5.425781-6.886718 9.710938-5.8125 4.285156 1.078126 6.886719 5.421876 5.8125 9.710938-.394531 1.558594-9.859375 38.0625-39.761719 38.0625zm0 0"/>
  </g>
  <path d="m120 352c0 13.253906-10.746094 24-24 24s-24-10.746094-24-24 10.746094-24 24-24 24 10.746094 24 24zm0 0" fill="#fdb5a6"/>
  <path d="m312 352c0 13.253906-10.746094 24-24 24s-24-10.746094-24-24 10.746094-24 24-24 24 10.746094 24 24zm0 0" fill="#fdb5a6"/>
  <path d="m256 176-64-32-64 32v-160c0-8.835938 7.164062-16 16-16h96c8.835938 0 16 7.164062 16 16zm0 0" fill="#9877b5"/>
  <path d="m192 80c-13.253906 0-24-10.746094-24-24s10.746094-24 24-24 24 10.746094 24 24-10.746094 24-24 24zm0-32c-4.417969 0-8 3.582031-8 8s3.582031 8 8 8 8-3.582031 8-8-3.582031-8-8-8zm0 0" fill="#ffc796"/>
</svg>